# Blender 3.1.1
# www.blender.org
mtllib cone.mtl
o ConeMuzzle
v 0.000000 1.000000 0.330367
v -0.195090 0.980785 0.330367
v -0.382683 0.923879 0.330367
v -0.555570 0.831470 0.330367
v -0.707107 0.707107 0.330367
v -0.831470 0.555570 0.330367
v -0.923880 0.382683 0.330367
v -0.980785 0.195090 0.330367
v -1.000000 0.000000 0.330367
v -0.980785 -0.195090 0.330367
v -0.923880 -0.382683 0.330367
v -0.831470 -0.555570 0.330367
v -0.707107 -0.707107 0.330367
v -0.555570 -0.831470 0.330367
v -0.382683 -0.923880 0.330367
v -0.195090 -0.980785 0.330367
v 0.000000 -1.000000 0.330367
v 0.195091 -0.980785 0.330367
v 0.382684 -0.923879 0.330367
v 0.555571 -0.831469 0.330367
v 0.707107 -0.707106 0.330367
v 0.831470 -0.555570 0.330367
v 0.923880 -0.382683 0.330367
v 0.980785 -0.195090 0.330367
v 1.000000 0.000001 0.330367
v 0.980785 0.195091 0.330367
v 0.923879 0.382684 0.330367
v 0.831469 0.555571 0.330367
v 0.707106 0.707108 0.330367
v 0.555569 0.831470 0.330367
v 0.382682 0.923880 0.330367
v 0.195089 0.980785 0.330367
v -0.000000 0.050105 0.009468
v -0.009775 0.049143 0.009468
v -0.019174 0.046291 0.009468
v -0.027837 0.041661 0.009468
v -0.035430 0.035430 0.009468
v -0.041661 0.027837 0.009468
v -0.046291 0.019175 0.009468
v -0.049142 0.009775 0.009468
v -0.050105 0.000000 0.009468
v -0.049142 -0.009775 0.009468
v -0.046291 -0.019174 0.009468
v -0.041661 -0.027837 0.009468
v -0.035430 -0.035429 0.009468
v -0.027837 -0.041661 0.009468
v -0.019174 -0.046291 0.009468
v -0.009775 -0.049142 0.009468
v -0.000000 -0.050105 0.009468
v 0.009775 -0.049142 0.009468
v 0.019174 -0.046291 0.009468
v 0.027837 -0.041661 0.009468
v 0.035430 -0.035429 0.009468
v 0.041661 -0.027837 0.009468
v 0.046291 -0.019174 0.009468
v 0.049142 -0.009775 0.009468
v 0.050105 0.000000 0.009468
v 0.049142 0.009775 0.009468
v 0.046291 0.019175 0.009468
v 0.041661 0.027837 0.009468
v 0.035429 0.035430 0.009468
v 0.027837 0.041661 0.009468
v 0.019174 0.046291 0.009468
v 0.009775 0.049143 0.009468
v 0.514964 0.102433 0.130883
v 0.485085 0.200930 0.130883
v -0.371268 -0.371268 0.130883
v -0.291704 -0.436565 0.130883
v 0.436565 0.291704 0.130883
v -0.200929 -0.485085 0.130883
v -0.000000 0.525053 0.130884
v -0.102433 0.514964 0.130884
v 0.371268 0.371269 0.130884
v -0.102433 -0.514964 0.130883
v -0.200929 0.485085 0.130884
v 0.291703 0.436566 0.130884
v 0.000000 -0.525052 0.130883
v -0.291704 0.436565 0.130884
v 0.200928 0.485086 0.130884
v 0.102433 -0.514964 0.130883
v -0.371268 0.371268 0.130884
v 0.102432 0.514964 0.130884
v 0.200929 -0.485085 0.130883
v -0.436565 0.291704 0.130884
v 0.291704 -0.436565 0.130883
v -0.485085 0.200929 0.130884
v 0.371268 -0.371268 0.130883
v -0.514964 0.102433 0.130884
v 0.436565 -0.291703 0.130883
v -0.525053 0.000000 0.130883
v 0.485085 -0.200928 0.130883
v -0.514964 -0.102432 0.130883
v 0.514964 -0.102432 0.130883
v -0.485085 -0.200929 0.130883
v 0.525052 0.000001 0.130883
v -0.436565 -0.291703 0.130883
vn 0.2979 0.1234 -0.9466
vn 0.3162 0.0629 -0.9466
vn 0.2429 0.0483 -0.9688
vn 0.2288 0.0948 -0.9688
vn -0.1791 -0.2681 -0.9466
vn -0.2280 -0.2280 -0.9466
vn -0.1751 -0.1751 -0.9688
vn -0.1376 -0.2059 -0.9688
vn 0.2681 0.1791 -0.9466
vn 0.2059 0.1376 -0.9688
vn -0.1234 -0.2979 -0.9466
vn -0.0948 -0.2288 -0.9688
vn -0.0629 0.3162 -0.9466
vn -0.0000 0.3224 -0.9466
vn -0.0000 0.2477 -0.9688
vn -0.0483 0.2429 -0.9688
vn 0.2280 0.2280 -0.9466
vn 0.1751 0.1751 -0.9688
vn -0.0629 -0.3162 -0.9466
vn -0.0483 -0.2429 -0.9688
vn -0.1234 0.2979 -0.9466
vn -0.0948 0.2288 -0.9688
vn 0.1791 0.2681 -0.9466
vn 0.1376 0.2059 -0.9688
vn -0.0000 -0.3224 -0.9466
vn -0.0000 -0.2477 -0.9688
vn -0.1791 0.2681 -0.9466
vn -0.1376 0.2059 -0.9688
vn 0.1234 0.2979 -0.9466
vn 0.0948 0.2288 -0.9688
vn 0.0629 -0.3162 -0.9466
vn 0.0483 -0.2429 -0.9688
vn -0.2280 0.2280 -0.9466
vn -0.1751 0.1751 -0.9688
vn 0.0629 0.3162 -0.9466
vn 0.0483 0.2429 -0.9688
vn 0.1234 -0.2979 -0.9466
vn 0.0948 -0.2288 -0.9688
vn -0.2681 0.1791 -0.9466
vn -0.2059 0.1376 -0.9688
vn 0.1791 -0.2681 -0.9466
vn 0.1376 -0.2059 -0.9688
vn -0.2979 0.1234 -0.9466
vn -0.2288 0.0948 -0.9688
vn 0.2280 -0.2280 -0.9466
vn 0.1751 -0.1751 -0.9688
vn -0.3162 0.0629 -0.9466
vn -0.2429 0.0483 -0.9688
vn 0.2681 -0.1791 -0.9466
vn 0.2059 -0.1376 -0.9688
vn -0.3224 -0.0000 -0.9466
vn -0.2477 -0.0000 -0.9688
vn 0.2979 -0.1234 -0.9466
vn 0.2288 -0.0948 -0.9688
vn -0.3162 -0.0629 -0.9466
vn -0.2429 -0.0483 -0.9688
vn 0.3162 -0.0629 -0.9466
vn 0.2429 -0.0483 -0.9688
vn -0.2979 -0.1234 -0.9466
vn -0.2288 -0.0948 -0.9688
vn 0.3224 -0.0000 -0.9466
vn 0.2477 -0.0000 -0.9688
vn -0.2681 -0.1791 -0.9466
vn -0.2059 -0.1376 -0.9688
vn -0.2738 -0.2738 -0.9220
vn -0.3220 -0.2151 -0.9220
vn 0.3798 0.0755 -0.9220
vn 0.3872 -0.0000 -0.9220
vn -0.3578 -0.1482 -0.9220
vn 0.3798 -0.0755 -0.9220
vn -0.3798 -0.0755 -0.9220
vn 0.3578 -0.1482 -0.9220
vn -0.3872 -0.0000 -0.9220
vn 0.3220 -0.2151 -0.9220
vn -0.3798 0.0755 -0.9220
vn 0.2738 -0.2738 -0.9220
vn -0.3578 0.1482 -0.9220
vn 0.2151 -0.3220 -0.9220
vn -0.3220 0.2151 -0.9220
vn 0.1482 -0.3578 -0.9220
vn -0.0000 0.3872 -0.9220
vn 0.0755 0.3798 -0.9220
vn -0.2738 0.2738 -0.9220
vn 0.0755 -0.3798 -0.9220
vn 0.1482 0.3578 -0.9220
vn -0.2151 0.3220 -0.9220
vn -0.0000 -0.3872 -0.9220
vn 0.2151 0.3220 -0.9220
vn -0.1482 0.3578 -0.9220
vn -0.0755 -0.3798 -0.9220
vn 0.2738 0.2738 -0.9220
vn -0.0755 0.3798 -0.9220
vn -0.1482 -0.3578 -0.9220
vn 0.3220 0.2151 -0.9220
vn -0.2151 -0.3220 -0.9220
vn 0.3578 0.1482 -0.9220
vt 0.254993 0.995332
vt 0.224046 0.995332
vt 0.193100 0.995332
vt 0.162153 0.995332
vt 0.131207 0.995332
vt 0.100260 0.995332
vt 0.069314 0.995332
vt 0.038367 0.995332
vt 0.997709 0.995332
vt 0.007421 0.995332
vt 0.966763 0.995332
vt 0.935816 0.995332
vt 0.904870 0.995332
vt 0.873924 0.995332
vt 0.842977 0.995332
vt 0.812030 0.995332
vt 0.781084 0.995332
vt 0.750137 0.995332
vt 0.719191 0.995332
vt 0.688244 0.995332
vt 0.657298 0.995332
vt 0.626351 0.995332
vt 0.595405 0.995332
vt 0.564458 0.995332
vt 0.533512 0.995332
vt 0.502565 0.995332
vt 0.471618 0.995332
vt 0.440672 0.995332
vt 0.409725 0.995332
vt 0.378779 0.995332
vt 0.347832 0.995332
vt 0.316886 0.995332
vt 0.285939 0.995332
vt 0.254993 0.002854
vt 0.224046 0.002854
vt 0.193100 0.002854
vt 0.162153 0.002854
vt 0.131207 0.002854
vt 0.100260 0.002854
vt 0.069314 0.002854
vt 0.038367 0.002854
vt 0.007421 0.002854
vt 0.997709 0.002854
vt 0.966763 0.002854
vt 0.935816 0.002854
vt 0.904870 0.002854
vt 0.873923 0.002854
vt 0.842977 0.002854
vt 0.812030 0.002854
vt 0.781084 0.002854
vt 0.750137 0.002854
vt 0.719191 0.002854
vt 0.688244 0.002854
vt 0.657298 0.002854
vt 0.626351 0.002854
vt 0.595405 0.002854
vt 0.564458 0.002854
vt 0.533511 0.002854
vt 0.502565 0.002854
vt 0.471618 0.002854
vt 0.440672 0.002854
vt 0.409725 0.002854
vt 0.378779 0.002854
vt 0.347832 0.002854
vt 0.316886 0.002854
vt 0.285939 0.002854
vt 0.471618 0.499093
vt 0.440672 0.499093
vt 0.873923 0.499093
vt 0.842977 0.499093
vt 0.409725 0.499093
vt 0.812030 0.499093
vt 0.254993 0.499093
vt 0.224046 0.499093
vt 0.378779 0.499093
vt 0.781084 0.499093
vt 0.193100 0.499093
vt 0.347832 0.499093
vt 0.750137 0.499093
vt 0.162153 0.499093
vt 0.316886 0.499093
vt 0.719191 0.499093
vt 0.131207 0.499093
vt 0.285939 0.499093
vt 0.688244 0.499093
vt 0.100260 0.499093
vt 0.657298 0.499093
vt 0.069314 0.499093
vt 0.626351 0.499093
vt 0.038367 0.499093
vt 0.595405 0.499093
vt 0.997709 0.499093
vt 0.007421 0.499093
vt 0.564458 0.499093
vt 0.966763 0.499093
vt 0.533512 0.499093
vt 0.935816 0.499093
vt 0.502565 0.499093
vt 0.904870 0.499093
s 1
f 66/68/1 65/67/2 58/60/3 59/61/4
f 68/70/5 67/69/6 45/47/7 46/48/8
f 69/71/9 66/68/1 59/61/4 60/62/10
f 70/72/11 68/70/5 46/48/8 47/49/12
f 72/74/13 71/73/14 33/34/15 34/35/16
f 73/75/17 69/71/9 60/62/10 61/63/18
f 74/76/19 70/72/11 47/49/12 48/50/20
f 75/77/21 72/74/13 34/35/16 35/36/22
f 76/78/23 73/75/17 61/63/18 62/64/24
f 77/79/25 74/76/19 48/50/20 49/51/26
f 78/80/27 75/77/21 35/36/22 36/37/28
f 79/81/29 76/78/23 62/64/24 63/65/30
f 80/82/31 77/79/25 49/51/26 50/52/32
f 81/83/33 78/80/27 36/37/28 37/38/34
f 82/84/35 79/81/29 63/65/30 64/66/36
f 83/85/37 80/82/31 50/52/32 51/53/38
f 84/86/39 81/83/33 37/38/34 38/39/40
f 71/73/14 82/84/35 64/66/36 33/34/15
f 85/87/41 83/85/37 51/53/38 52/54/42
f 86/88/43 84/86/39 38/39/40 39/40/44
f 87/89/45 85/87/41 52/54/42 53/55/46
f 88/90/47 86/88/43 39/40/44 40/41/48
f 89/91/49 87/89/45 53/55/46 54/56/50
f 90/93/51 88/90/47 40/41/48 41/42/52
f 91/94/53 89/91/49 54/56/50 55/57/54
f 92/95/55 90/92/51 41/43/52 42/44/56
f 93/96/57 91/94/53 55/57/54 56/58/58
f 94/97/59 92/95/55 42/44/56 43/45/60
f 95/98/61 93/96/57 56/58/58 57/59/62
f 96/99/63 94/97/59 43/45/60 44/46/64
f 65/67/2 95/98/61 57/59/62 58/60/3
f 67/69/6 96/99/63 44/46/64 45/47/7
f 13/14/65 12/13/66 96/99/63 67/69/6
f 26/27/67 25/26/68 95/98/61 65/67/2
f 12/13/66 11/12/69 94/97/59 96/99/63
f 25/26/68 24/25/70 93/96/57 95/98/61
f 11/12/69 10/11/71 92/95/55 94/97/59
f 24/25/70 23/24/72 91/94/53 93/96/57
f 10/11/71 9/9/73 90/92/51 92/95/55
f 23/24/72 22/23/74 89/91/49 91/94/53
f 9/10/73 8/8/75 88/90/47 90/93/51
f 22/23/74 21/22/76 87/89/45 89/91/49
f 8/8/75 7/7/77 86/88/43 88/90/47
f 21/22/76 20/21/78 85/87/41 87/89/45
f 7/7/77 6/6/79 84/86/39 86/88/43
f 20/21/78 19/20/80 83/85/37 85/87/41
f 1/1/81 32/33/82 82/84/35 71/73/14
f 6/6/79 5/5/83 81/83/33 84/86/39
f 19/20/80 18/19/84 80/82/31 83/85/37
f 32/33/82 31/32/85 79/81/29 82/84/35
f 5/5/83 4/4/86 78/80/27 81/83/33
f 18/19/84 17/18/87 77/79/25 80/82/31
f 31/32/85 30/31/88 76/78/23 79/81/29
f 4/4/86 3/3/89 75/77/21 78/80/27
f 17/18/87 16/17/90 74/76/19 77/79/25
f 30/31/88 29/30/91 73/75/17 76/78/23
f 3/3/89 2/2/92 72/74/13 75/77/21
f 16/17/90 15/16/93 70/72/11 74/76/19
f 29/30/91 28/29/94 69/71/9 73/75/17
f 2/2/92 1/1/81 71/73/14 72/74/13
f 15/16/93 14/15/95 68/70/5 70/72/11
f 28/29/94 27/28/96 66/68/1 69/71/9
f 14/15/95 13/14/65 67/69/6 68/70/5
f 27/28/96 26/27/67 65/67/2 66/68/1
