# Blender 3.1.1
# www.blender.org
mtllib muuuzz.mtl
o MuzzlePlanes
v -1.000000 0.000000 2.001851
v 1.000000 0.000000 2.001851
v -1.000000 0.000000 0.001850
v 1.000000 0.000000 0.001850
v 0.000000 1.000000 2.001851
v 0.000000 -1.000000 2.001851
v 0.000000 1.000000 0.001851
v 0.000000 -1.000000 0.001851
vn -0.0000 1.0000 -0.0000
vn 1.0000 -0.0000 -0.0000
vt 1.000000 1.000000
vt 0.000000 1.000000
vt 1.000000 0.000000
vt 0.000000 0.000000
vt 1.000000 1.000000
vt 0.000000 1.000000
vt 1.000000 0.000000
vt 0.000000 0.000000
s 1
f 1/1/1 2/2/1 4/4/1 3/3/1
f 5/5/2 6/6/2 8/8/2 7/7/2
